# xmcd
#
# Track frame offsets:
#	150
#	10995
#	22225
#	34500
#	61105
#	72582
#	82247
#	95555
#	108127
#	121642
#	134967
#	147140
#	162457
#	171547
#	185795
#
# Disc length: 2648 seconds
#
# Revision: 0
# Processed by: cddbd v1.4PL0 Copyright (c) Steve Scherf et al.
# Submitted via: audiograbber 1.82.01
#
DISCID=de0a560f
DTITLE=King Curtis - best of - Groovin' with the king
DYEAR=1900
DGENRE=Pop
TTITLE0=Soul twist
TTITLE1=Night train
TTITLE2=Groovin' with the king
TTITLE3=Midnight blue
TTITLE4=Watermelon man
TTITLE5=Peter Gunn
TTITLE6=Soul serenade
TTITLE7=Irresistible you
TTITLE8=Big dipper
TTITLE9=I know
TTITLE10=Jack-o-wee
TTITLE11=What'd I said
TTITLE12=Wiggle Wobble
TTITLE13=Camp meetin'
TTITLE14=Memphis
EXTD=
EXTT0=
EXTT1=
EXTT2=
EXTT3=
EXTT4=
EXTT5=
EXTT6=
EXTT7=
EXTT8=
EXTT9=
EXTT10=
EXTT11=
EXTT12=
EXTT13=
EXTT14=
PLAYORDER=
